<?xml version="1.0" standalone="no"?>
<!DOCTYPE svg PUBLIC "-//W3C//DTD SVG 20010904//EN"
 "http://www.w3.org/TR/2001/REC-SVG-20010904/DTD/svg10.dtd">
<svg version="1.0" xmlns="http://www.w3.org/2000/svg"
 width="800.000000pt" height="212.000000pt" viewBox="0 0 800.000000 212.000000"
 preserveAspectRatio="xMidYMid meet">

<g transform="translate(0.000000,212.000000) scale(0.100000,-0.100000)"
fill="#000000" stroke="none">
<path d="M2083 2079 c-154 -30 -269 -143 -304 -296 -14 -64 -13 -207 2 -268
31 -129 127 -248 317 -393 140 -107 204 -170 232 -227 43 -88 44 -218 3 -272
-29 -40 -87 -66 -148 -67 -105 -1 -136 39 -143 182 l-4 94 -42 -6 c-22 -3 -85
-8 -140 -12 l-98 -7 4 -126 c3 -109 7 -134 29 -181 36 -77 80 -124 147 -157
47 -23 73 -28 152 -31 182 -8 362 49 457 144 92 93 138 257 115 414 -23 162
-97 264 -304 421 -222 168 -280 244 -286 374 -5 123 43 180 153 180 107 0 155
-55 155 -177 l0 -68 146 0 147 0 -7 89 c-8 103 -28 178 -61 230 -53 83 -143
141 -249 160 -68 13 -211 13 -273 0z"/>
<path d="M5463 2075 c-128 -29 -230 -111 -275 -223 -23 -57 -23 -61 -26 -572
-2 -336 1 -538 8 -580 24 -145 115 -261 253 -325 95 -43 170 -58 297 -59 141
-1 195 18 271 94 48 47 61 68 78 126 21 67 22 85 21 604 0 303 -5 563 -10 600
-6 36 -26 97 -46 138 -44 90 -116 152 -214 183 -84 28 -267 35 -357 14z m255
-251 c15 -11 36 -38 47 -60 19 -37 20 -62 23 -571 3 -485 2 -535 -14 -568 -24
-50 -64 -69 -136 -62 -76 7 -118 32 -145 87 -22 44 -22 52 -25 577 -3 524 -3
532 18 560 11 15 36 36 55 46 45 24 138 19 177 -9z"/>
<path d="M508 2063 l-198 -3 0 -1006 0 -1006 23 5 c12 3 63 13 112 22 50 9 98
18 108 21 16 5 17 50 18 752 0 446 4 739 9 727 5 -11 57 -337 115 -725 59
-388 108 -706 109 -707 5 -5 241 38 247 45 3 4 54 315 113 692 60 377 112 699
116 715 5 17 9 -286 9 -672 1 -387 5 -703 10 -703 19 0 264 39 268 43 2 2 6
410 10 906 l6 901 -219 -2 -219 -3 -99 -683 c-55 -375 -103 -679 -107 -675 -3
5 -49 312 -101 683 -88 626 -96 675 -114 675 -10 1 -108 -1 -216 -2z"/>
<path d="M2857 1929 c-4 -79 -7 -456 -7 -838 l0 -693 148 7 c81 4 150 9 155
12 4 2 7 164 7 360 l0 355 98 -4 c106 -4 143 -16 176 -61 20 -27 21 -45 26
-305 4 -213 9 -284 20 -306 l14 -29 75 7 c41 3 109 6 151 6 l78 0 -14 38 c-9
26 -13 96 -14 237 0 110 -5 238 -10 284 -16 140 -68 221 -164 254 l-38 13 58
34 c70 41 117 106 133 180 6 28 11 107 11 175 0 196 -40 289 -150 349 -96 53
-132 57 -451 63 l-296 5 -6 -143z m536 -112 c56 -36 62 -58 62 -213 0 -128 -2
-145 -21 -171 -36 -50 -97 -73 -191 -73 l-83 0 0 241 0 241 103 -4 c77 -2 110
-8 130 -21z"/>
<path d="M3983 1738 c4 -182 7 -549 7 -815 l0 -483 137 0 136 0 -6 595 c-3
368 -2 595 4 595 5 0 9 -2 9 -5 0 -6 370 -1199 373 -1201 1 -1 71 -5 155 -9
l152 -7 0 583 c0 321 -3 695 -7 832 l-6 247 -134 0 -134 0 7 -497 c4 -319 3
-494 -3 -488 -5 6 -77 229 -158 498 l-149 487 -195 0 -194 0 6 -332z"/>
<path d="M6228 2033 c2 -21 50 -434 105 -918 l102 -880 198 -33 c110 -18 200
-32 202 -30 1 2 30 271 64 598 33 327 65 613 69 635 l8 40 7 -40 c4 -22 36
-317 72 -655 36 -338 68 -620 69 -626 4 -9 365 -89 372 -81 3 3 194 1970 194
2000 0 15 -15 17 -130 17 -117 0 -130 -2 -130 -17 0 -43 -130 -1496 -134
-1500 -6 -7 -11 41 -81 757 -36 366 -68 686 -71 713 l-6 47 -163 0 -163 0 -6
-37 c-3 -21 -33 -333 -66 -693 -60 -644 -67 -707 -75 -698 -3 2 -36 321 -75
709 -39 387 -73 710 -75 717 -3 9 -42 12 -147 12 l-144 0 4 -37z"/>
</g>
</svg>
